<?xml version="1.0" standalone="no"?>
<!DOCTYPE svg PUBLIC "-//W3C//DTD SVG 20010904//EN"
 "http://www.w3.org/TR/2001/REC-SVG-20010904/DTD/svg10.dtd">
<svg version="1.0" xmlns="http://www.w3.org/2000/svg"
 width="584.000000pt" height="125.000000pt" viewBox="0 0 584.000000 125.000000"
 preserveAspectRatio="xMidYMid meet">

<g transform="translate(0.000000,125.000000) scale(0.100000,-0.100000)"
fill="#000000" stroke="none">
<path d="M3155 956 c-46 -21 -66 -50 -74 -108 l-6 -53 -47 -3 c-45 -3 -48 -5
-48 -32 0 -51 9 -60 56 -60 l44 0 0 -144 c0 -79 3 -151 6 -160 5 -12 21 -16
65 -16 l59 0 0 160 0 160 61 0 60 0 -3 43 -3 42 -55 5 c-65 6 -76 25 -36 65
20 20 35 25 76 25 50 0 50 0 50 33 0 18 -5 38 -12 45 -16 16 -155 15 -193 -2z"/>
<path d="M3978 783 l-3 -188 -25 -2 c-14 -1 -77 -13 -140 -26 -98 -21 -118
-22 -136 -11 -21 13 -21 12 -26 -129 -5 -138 5 -202 18 -119 8 49 16 57 66 65
90 14 160 77 173 157 5 30 12 40 26 42 10 0 25 1 32 2 8 1 13 -27 17 -94 l5
-95 63 -3 62 -3 0 278 c-1 215 -4 282 -14 296 -10 12 -27 17 -64 17 l-52 0 -2
-187z m-204 -265 c-15 -27 -48 -58 -61 -58 -16 0 -7 50 11 62 19 13 58 9 50
-4z"/>
<path d="M4212 913 l3 -58 65 0 65 0 3 34 c2 19 -2 45 -9 58 -11 20 -20 23
-71 23 l-59 0 3 -57z"/>
<path d="M2688 894 c-45 -14 -47 -16 -50 -57 l-3 -42 -52 -3 c-47 -3 -53 -6
-53 -25 0 -57 10 -67 60 -67 l48 0 4 -117 c5 -166 27 -198 145 -210 28 -3 67
-3 87 1 33 6 36 10 36 39 0 43 -15 57 -56 50 -22 -4 -42 0 -59 11 -25 17 -26
19 -23 119 l3 102 68 3 68 3 -3 42 -3 42 -65 5 -65 5 -5 55 c-6 63 -11 66 -82
44z"/>
<path d="M3650 876 c4 -13 18 -69 30 -125 21 -98 21 -103 5 -122 -18 -19 -16
-19 104 -19 122 0 122 0 115 23 -26 84 -92 150 -163 163 -56 10 -68 20 -75 64
-3 22 -11 40 -16 40 -6 0 -6 -9 0 -24z m113 -184 c9 -8 17 -23 17 -34 0 -15
-5 -17 -27 -12 -34 8 -53 30 -53 61 0 21 2 23 23 12 12 -6 30 -18 40 -27z"/>
<path d="M3617 827 c-3 -8 -30 -19 -61 -25 -96 -19 -150 -68 -172 -156 -6 -27
-5 -28 17 -23 13 3 43 9 67 13 32 5 46 13 52 29 9 24 46 55 65 55 7 0 10 -12
7 -28 -2 -19 3 -33 17 -46 l21 -19 0 106 c0 104 -2 121 -13 94z"/>
<path d="M1181 798 c-18 -5 -44 -16 -56 -24 -20 -13 -24 -13 -35 1 -8 10 -30
15 -66 15 l-54 0 0 -264 c0 -145 3 -271 6 -280 5 -12 21 -16 65 -16 l59 0 0
95 c0 52 3 95 6 95 3 0 26 -12 52 -28 38 -22 59 -27 108 -26 127 1 205 71 212
189 5 80 -9 122 -59 179 -58 66 -148 90 -238 64z m84 -88 c26 0 74 -51 81 -86
9 -50 -20 -121 -60 -145 -42 -25 -106 -25 -139 2 -77 59 -46 200 49 229 16 4
35 6 42 4 8 -2 20 -4 27 -4z"/>
<path d="M1713 800 c-80 -17 -129 -55 -158 -122 -47 -113 24 -266 139 -298 60
-17 171 -17 232 0 178 50 194 308 23 393 -62 31 -163 43 -236 27z m139 -90
c11 0 33 -13 49 -29 24 -25 29 -37 29 -81 0 -100 -50 -146 -148 -138 -45 4
-60 10 -80 33 -21 25 -24 36 -20 92 3 52 9 68 30 89 25 26 81 46 106 38 8 -2
23 -4 34 -4z"/>
<path d="M4593 800 c-154 -33 -213 -171 -137 -321 40 -80 107 -112 234 -112
127 0 205 38 241 117 52 114 -9 261 -125 306 -40 15 -163 21 -213 10z m138
-90 c55 -15 83 -51 83 -108 -1 -98 -55 -148 -152 -140 -74 6 -102 37 -102 109
0 92 32 129 130 148 3 0 21 -4 41 -9z"/>
<path d="M2314 786 c-18 -8 -35 -19 -39 -26 -5 -8 -12 -5 -22 9 -11 17 -25 21
-67 21 l-52 0 3 -192 c3 -106 6 -199 9 -206 3 -9 21 -12 61 -10 l58 3 5 115
c3 63 10 125 17 136 18 31 74 54 132 54 l51 0 0 45 c0 40 -3 47 -26 55 -35 14
-93 12 -130 -4z"/>
<path d="M4210 601 c0 -104 3 -196 6 -205 5 -12 21 -16 65 -16 l59 0 0 199 c0
224 5 211 -81 211 l-49 0 0 -189z"/>
<path d="M3345 590 c-4 -7 1 -13 14 -17 14 -3 24 -18 31 -43 23 -87 96 -147
188 -158 43 -5 44 -4 37 19 -3 13 -9 32 -11 42 -3 9 -13 17 -22 17 -32 1 -92
67 -75 84 4 3 20 4 37 1 27 -5 33 -2 48 25 l17 30 -98 0 c-54 0 -112 3 -129 6
-18 4 -32 1 -37 -6z"/>
</g>
</svg>
